<svg version="1.1" id="Capa_1" xmlns="http://www.w3.org/2000/svg" xmlns:xlink="http://www.w3.org/1999/xlink" x="0px" y="0px"
	 viewBox="0 0 360.996 360.996" style="enable-background:new 0 0 360.996 360.996;" xml:space="preserve">
<g>
	<path d="M337.34,329.642l-9.505-0.559c-1.107-8.977-4.136-15.032-4.369-15.486c-0.01-0.018-0.022-0.035-0.031-0.054
		c-0.065-0.125-0.14-0.246-0.213-0.367c-0.057-0.096-0.11-0.193-0.171-0.285c-0.058-0.087-0.122-0.169-0.183-0.253
		c-0.085-0.117-0.167-0.236-0.257-0.347c-0.039-0.048-0.083-0.092-0.123-0.139c-0.118-0.137-0.235-0.274-0.361-0.401
		c-0.048-0.048-0.101-0.091-0.149-0.139c-0.122-0.117-0.244-0.234-0.373-0.342c-1.112-0.932-2.505-1.552-4.057-1.708l-17.567-1.775
		V127.494c0-1.262-0.318-2.504-0.926-3.61l-9-16.39l9-16.391c0.607-1.106,0.926-2.348,0.926-3.61V52.895l14.751-1.468
		c0.051-0.005,0.1-0.017,0.149-0.022c0.098-0.012,0.192-0.028,0.289-0.043c0.227-0.036,0.451-0.083,0.672-0.138
		c0.074-0.019,0.148-0.036,0.223-0.057c0.6-0.172,1.163-0.416,1.688-0.721c0.068-0.04,0.135-0.082,0.203-0.124
		c0.205-0.128,0.403-0.266,0.594-0.413c0.059-0.045,0.12-0.086,0.178-0.133c0.227-0.185,0.44-0.383,0.644-0.593
		c0.063-0.066,0.124-0.137,0.185-0.206c0.154-0.171,0.301-0.35,0.439-0.535c0.052-0.07,0.105-0.137,0.155-0.21
		c0.177-0.255,0.339-0.52,0.482-0.796c0.009-0.016,0.021-0.03,0.028-0.046c0.232-0.454,3.262-6.509,4.369-15.486l9.505-0.559
		c4.135-0.243,7.29-3.792,7.047-7.927c-0.243-4.135-3.781-7.293-7.928-7.047l-8.945,0.526c-0.669-3.906-1.855-8.007-3.756-12.193
		c-0.007-0.016-0.015-0.031-0.021-0.046c-0.048-0.106-0.09-0.211-0.139-0.317c-0.018-0.039-0.041-0.074-0.059-0.112
		c-0.07-0.144-0.145-0.284-0.223-0.423c-0.049-0.086-0.098-0.171-0.148-0.254c-0.073-0.117-0.149-0.231-0.229-0.343
		c-0.067-0.098-0.136-0.194-0.208-0.288c-0.068-0.09-0.141-0.176-0.214-0.262c-0.089-0.105-0.179-0.209-0.272-0.309
		c-0.065-0.069-0.134-0.136-0.202-0.202c-0.106-0.105-0.213-0.207-0.324-0.304c-0.069-0.06-0.141-0.116-0.212-0.174
		c-0.115-0.093-0.23-0.185-0.351-0.27c-0.08-0.058-0.164-0.111-0.247-0.166c-0.114-0.075-0.229-0.15-0.348-0.219
		c-0.099-0.057-0.199-0.109-0.301-0.162c-0.107-0.056-0.216-0.113-0.325-0.164c-0.115-0.053-0.233-0.101-0.352-0.148
		c-0.104-0.042-0.207-0.084-0.312-0.121c-0.123-0.043-0.248-0.08-0.373-0.117c-0.108-0.032-0.217-0.063-0.327-0.091
		c-0.119-0.029-0.24-0.053-0.361-0.076c-0.123-0.024-0.246-0.047-0.371-0.064c-0.107-0.015-0.216-0.026-0.324-0.036
		c-0.145-0.015-0.289-0.025-0.434-0.031C314.184,0.001,314.089,0,313.994,0c-0.159,0-0.318,0.004-0.478,0.014
		c-0.044,0.003-0.087,0.001-0.131,0.004L46.872,21.526c-3.108,0.25-5.619,2.363-6.528,5.154c-0.851,2.063-2.963,7.8-3.868,15.757
		L23.22,43.996c-4.114,0.484-7.056,4.211-6.572,8.325c0.449,3.816,3.689,6.624,7.44,6.624c0.292,0,0.588-0.017,0.886-0.052
		l11.54-1.357c0.6,4.95,1.837,10.248,4.011,15.717c0.134,0.339,0.296,0.661,0.475,0.972c0.028,0.049,0.056,0.099,0.085,0.148
		c0.17,0.281,0.357,0.549,0.562,0.804c0.045,0.057,0.093,0.11,0.14,0.165c0.197,0.232,0.404,0.453,0.628,0.659
		c0.023,0.021,0.044,0.045,0.068,0.067c0.239,0.214,0.495,0.408,0.76,0.591c0.058,0.04,0.114,0.08,0.173,0.118
		c0.27,0.175,0.549,0.335,0.84,0.475c0.04,0.019,0.081,0.036,0.121,0.054c0.288,0.132,0.584,0.248,0.89,0.343
		c0.026,0.008,0.051,0.019,0.077,0.026c0.313,0.094,0.635,0.165,0.962,0.217c0.067,0.011,0.134,0.02,0.202,0.029
		c0.317,0.042,0.637,0.071,0.963,0.072c0.011,0,0.022,0.002,0.033,0.002c0.246,0,0.493-0.015,0.741-0.039l12.307-1.225v128.762
		c0,0.96,0.184,1.91,0.542,2.8l7.265,18.054l-7.16,16.099c-0.426,0.96-0.647,1.998-0.647,3.048v38.099l-11.384-1.15
		c-3.81-0.384-7.251,2.167-8.067,5.823c-1.97,5.205-3.109,10.245-3.661,14.965l-9.657-1.136c-4.121-0.49-7.841,2.459-8.325,6.572
		c-0.484,4.114,2.458,7.841,6.572,8.325l11.424,1.344c1.054,8.958,3.625,15.045,4.122,16.158c0.008,0.019,0.017,0.039,0.026,0.058
		c0.018,0.039,0.036,0.08,0.045,0.1c0.013,0.029,0.032,0.054,0.046,0.083c0.127,0.266,0.271,0.522,0.428,0.77
		c0.037,0.06,0.072,0.12,0.111,0.178c0.173,0.257,0.361,0.503,0.564,0.736c0.053,0.06,0.108,0.115,0.163,0.174
		c0.174,0.188,0.357,0.366,0.55,0.535c0.051,0.045,0.101,0.092,0.153,0.135c0.249,0.207,0.511,0.399,0.787,0.573
		c0.009,0.005,0.018,0.01,0.028,0.017c0.284,0.177,0.583,0.334,0.892,0.474c0.006,0.003,0.013,0.006,0.02,0.009
		c0.756,0.338,1.577,0.564,2.45,0.636l268.347,22c0.151,0.012,0.301,0.015,0.45,0.019c0.053,0.001,0.105,0.008,0.158,0.008
		c0.013,0,0.025-0.003,0.037-0.003c0.309-0.001,0.61-0.026,0.91-0.064c0.072-0.009,0.145-0.02,0.218-0.032
		c0.632-0.099,1.238-0.275,1.812-0.523c0.06-0.026,0.12-0.053,0.18-0.081c0.279-0.13,0.553-0.271,0.813-0.433
		c0.016-0.01,0.032-0.021,0.048-0.031c0.248-0.157,0.482-0.332,0.709-0.517c0.071-0.058,0.141-0.116,0.21-0.175
		c0.224-0.196,0.439-0.402,0.64-0.623c0.038-0.042,0.071-0.088,0.108-0.131c0.183-0.211,0.352-0.434,0.51-0.665
		c0.036-0.053,0.073-0.104,0.108-0.158c0.179-0.276,0.339-0.565,0.48-0.865c0.008-0.017,0.019-0.03,0.026-0.047
		c1.999-4.313,3.227-8.538,3.915-12.557l8.945,0.526c0.15,0.009,0.299,0.013,0.447,0.013c3.94,0,7.246-3.075,7.48-7.06
		C344.63,333.434,341.475,329.885,337.34,329.642z M53.915,324.417c-1.483-5.241-3.275-15.15-0.224-26.44l257.806,26.05
		c1.404,4.438,2.994,12.479,0.297,21.532L53.915,324.417z M52.715,62.438c-3.016-11.258-1.223-21.134,0.256-26.355l256.015-20.661
		c2.699,9.051,1.112,17.092-0.293,21.533L52.715,62.438z M75.548,247.086l7.803-17.545c0.825-1.855,0.862-3.964,0.105-5.848
		l-7.908-19.652V75.238L284.98,54.389V85.57l-10.057,18.314c-1.234,2.248-1.234,4.972,0,7.22l10.057,18.313v176.854L75.548,285.108
		V247.086z"/>
	<path d="M251.334,104.729h-145.88c-4.142,0-7.5,3.358-7.5,7.5s3.358,7.5,7.5,7.5h145.88c4.143,0,7.5-3.358,7.5-7.5
		S255.477,104.729,251.334,104.729z"/>
	<path d="M251.334,149.927h-145.88c-4.142,0-7.5,3.358-7.5,7.5c0,4.142,3.358,7.5,7.5,7.5h145.88c4.143,0,7.5-3.358,7.5-7.5
		C258.834,153.285,255.477,149.927,251.334,149.927z"/>
	<path d="M251.334,195.125h-145.88c-4.142,0-7.5,3.358-7.5,7.5c0,4.142,3.358,7.5,7.5,7.5h145.88c4.143,0,7.5-3.358,7.5-7.5
		C258.834,198.483,255.477,195.125,251.334,195.125z"/>
	<path d="M251.334,240.323h-145.88c-4.142,0-7.5,3.358-7.5,7.5c0,4.142,3.358,7.5,7.5,7.5h145.88c4.143,0,7.5-3.358,7.5-7.5
		C258.834,243.681,255.477,240.323,251.334,240.323z"/>
</g>
<g>
</g>
<g>
</g>
<g>
</g>
<g>
</g>
<g>
</g>
<g>
</g>
<g>
</g>
<g>
</g>
<g>
</g>
<g>
</g>
<g>
</g>
<g>
</g>
<g>
</g>
<g>
</g>
<g>
</g>
</svg>
